# xmcd
#
# Track frame offsets:
#	187
#	20052
#	34705
#	67882
#	77840
#	95030
#	118882
#	137590
#	161390
#	171777
#	191140
#
# Disc length: 2829 seconds
#
# Revision: 0
# Processed by: cddbd v1.5.1PL0 Copyright (c) Steve Scherf et al.
# Submitted via: EasyCDDAExtractor 7.1.3.1
#
DISCID=920b0b0b
DTITLE=Mike Henderson Blues Band - Cosmic Strut
DYEAR=1900
DGENRE=Blues
TTITLE0=Destiny
TTITLE1=Heart Breaker
TTITLE2=Cosmic Strut
TTITLE3=Homesick
TTITLE4=No More Lonely Nights
TTITLE5=Preachin' Blues
TTITLE6=Mike's Sermon
TTITLE7=Rattlesnake Blues
TTITLE8=Sun Is Shining
TTITLE9=You Don't Love Me
TTITLE10=Drowning On Dryland
EXTD=
EXTT0=
EXTT1=
EXTT2=
EXTT3=
EXTT4=
EXTT5=
EXTT6=
EXTT7=
EXTT8=
EXTT9=
EXTT10=
PLAYORDER=
